<svg xmlns="http://www.w3.org/2000/svg" viewBox="0 0 360 520" role="img" aria-label="-t7'×ÕJ«Ï">
  <defs>
    <linearGradient id="bg" x1="0" y1="0" x2="0" y2="1">
      <stop offset="0%" stop-color="#f8fafc" stop-opacity="0"/>
      <stop offset="100%" stop-color="#f8fafc" stop-opacity="0"/>
    </linearGradient>
    <radialGradient id="face" cx="50%" cy="38%" r="42%">
      <stop offset="0%" stop-color="#f0d0b0"/>
      <stop offset="100%" stop-color="#d4a574"/>
    </radialGradient>
    <filter id="soft" x="-20%" y="-20%" width="140%" height="140%">
      <feGaussianBlur stdDeviation="1.2"/>
    </filter>
  </defs>
  <ellipse cx="180" cy="470" rx="130" ry="28" fill="#0f172a" opacity=".12"/>
  <path d="M95 500 L265 500 L250 360 Q180 330 110 360 Z" fill="#334155"/>
  <path d="M120 360 L240 360 L225 250 Q180 220 135 250 Z" fill="#475569"/>
  <path d="M145 250 Q180 205 215 250 L205 175 Q180 150 155 175 Z" fill="url(#face)"/>
  <path d="M118 178 C125 130 155 108 180 108 C205 108 235 130 242 178 C228 168 152 168 118 178 Z" fill="#3f3f46"/>
  <path d="M150 175 Q180 188 210 175" stroke="#8b5e3c" stroke-width="3" fill="none" stroke-linecap="round"/>
  <ellipse cx="158" cy="198" rx="9" ry="6" fill="#1e293b"/>
  <ellipse cx="202" cy="198" rx="9" ry="6" fill="#1e293b"/>
  <ellipse cx="160" cy="197" rx="3" ry="3" fill="#fff" opacity=".7"/>
  <ellipse cx="204" cy="197" rx="3" ry="3" fill="#fff" opacity=".7"/>
  <path d="M165 218 Q180 228 195 218" stroke="#92400e" stroke-width="3" fill="none" stroke-linecap="round"/>
  <path d="M132 210 Q145 205 152 215" stroke="#6b4c35" stroke-width="2" fill="none" opacity=".5"/>
  <path d="M208 215 Q215 205 228 210" stroke="#6b4c35" stroke-width="2" fill="none" opacity=".5"/>
  <ellipse cx="180" cy="232" rx="18" ry="10" fill="#c49a6c" opacity=".25"/>
</svg>
